<svg width="381" height="66" viewBox="0 0 381 66" fill="none" xmlns="http://www.w3.org/2000/svg">
<path d="M115.179 59H106.776V28.9141C106.776 28.3265 106.659 27.7781 106.424 27.2688C106.208 26.7596 105.905 26.3188 105.513 25.9467C105.141 25.5549 104.7 25.2513 104.191 25.0359C103.681 24.8204 103.133 24.7127 102.545 24.7127C101.958 24.7127 101.409 24.8204 100.9 25.0359C100.391 25.2513 99.9403 25.5549 99.5486 25.9467C99.1764 26.3188 98.8826 26.7596 98.6671 27.2688C98.4517 27.7781 98.344 28.3265 98.344 28.9141V59H89.9117V28.9141C89.9117 28.3265 89.804 27.7781 89.5885 27.2688C89.373 26.7596 89.0694 26.3188 88.6777 25.9467C88.3055 25.5549 87.8648 25.2513 87.3556 25.0359C86.8463 24.8204 86.2979 24.7127 85.7102 24.7127C85.1226 24.7127 84.5742 24.8204 84.0649 25.0359C83.5557 25.2513 83.1052 25.5549 82.7134 25.9467C82.3413 26.3188 82.0475 26.7596 81.832 27.2688C81.6165 27.7781 81.5088 28.3265 81.5088 28.9141V59H73.0765V28.9141C73.0765 27.1709 73.3997 25.5354 74.0461 24.0076C74.7121 22.4602 75.6131 21.1185 76.7491 19.9824C77.9048 18.8268 79.2465 17.9258 80.7743 17.2794C82.3217 16.6134 83.967 16.2804 85.7102 16.2804C87.2772 16.2804 88.7854 16.5644 90.2349 17.1325C91.6843 17.6809 92.9869 18.484 94.1425 19.5417C95.2982 18.484 96.5909 17.6809 98.0208 17.1325C99.4702 16.5644 100.978 16.2804 102.545 16.2804C104.289 16.2804 105.924 16.6134 107.452 17.2794C108.999 17.9258 110.341 18.8268 111.477 19.9824C112.633 21.1185 113.534 22.4602 114.18 24.0076C114.846 25.5354 115.179 27.1709 115.179 28.9141V59ZM140.829 49.0137C141.235 49.1408 141.642 49.2297 142.048 49.2805C142.455 49.3059 142.862 49.3187 143.268 49.3187C144.285 49.3187 145.263 49.1789 146.203 48.8994C147.143 48.6199 148.02 48.226 148.833 47.7178C149.672 47.1842 150.408 46.5489 151.044 45.812C151.704 45.0497 152.238 44.2112 152.645 43.2964L160.268 50.9576C159.302 52.3298 158.184 53.5622 156.913 54.6548C155.668 55.7475 154.309 56.675 152.835 57.4373C151.387 58.1996 149.849 58.7713 148.223 59.1525C146.622 59.559 144.971 59.7623 143.268 59.7623C140.397 59.7623 137.691 59.2287 135.149 58.1615C132.634 57.0942 130.423 55.6077 128.517 53.7019C126.637 51.7962 125.151 49.5346 124.058 46.9174C122.965 44.2747 122.419 41.3779 122.419 38.227C122.419 34.9999 122.965 32.0523 124.058 29.3842C125.151 26.7161 126.637 24.4419 128.517 22.5616C130.423 20.6812 132.634 19.2201 135.149 18.1783C137.691 17.1364 140.397 16.6155 143.268 16.6155C144.971 16.6155 146.635 16.8188 148.261 17.2254C149.887 17.6319 151.425 18.2164 152.873 18.9787C154.347 19.741 155.719 20.6812 156.99 21.7992C158.26 22.8919 159.378 24.1243 160.344 25.4964L140.829 49.0137ZM146.165 27.5547C145.682 27.3768 145.199 27.2625 144.716 27.2116C144.259 27.1608 143.776 27.1354 143.268 27.1354C141.845 27.1354 140.498 27.4022 139.228 27.9358C137.983 28.444 136.89 29.1809 135.95 30.1465C135.035 31.1121 134.311 32.281 133.777 33.6532C133.244 34.9999 132.977 36.5245 132.977 38.227C132.977 38.6082 132.99 39.0402 133.015 39.523C133.066 40.0058 133.129 40.5013 133.206 41.0095C133.307 41.4923 133.422 41.9624 133.549 42.4197C133.676 42.8771 133.841 43.2837 134.044 43.6394L146.165 27.5547ZM183.878 49.0137C184.284 49.1408 184.691 49.2297 185.098 49.2805C185.504 49.3059 185.911 49.3187 186.317 49.3187C187.334 49.3187 188.312 49.1789 189.252 48.8994C190.192 48.6199 191.069 48.226 191.882 47.7178C192.721 47.1842 193.458 46.5489 194.093 45.812C194.754 45.0497 195.287 44.2112 195.694 43.2964L203.317 50.9576C202.351 52.3298 201.233 53.5622 199.963 54.6548C198.718 55.7475 197.358 56.675 195.884 57.4373C194.436 58.1996 192.899 58.7713 191.272 59.1525C189.671 59.559 188.02 59.7623 186.317 59.7623C183.446 59.7623 180.74 59.2287 178.199 58.1615C175.683 57.0942 173.472 55.6077 171.567 53.7019C169.686 51.7962 168.2 49.5346 167.107 46.9174C166.014 44.2747 165.468 41.3779 165.468 38.227C165.468 34.9999 166.014 32.0523 167.107 29.3842C168.2 26.7161 169.686 24.4419 171.567 22.5616C173.472 20.6812 175.683 19.2201 178.199 18.1783C180.74 17.1364 183.446 16.6155 186.317 16.6155C188.02 16.6155 189.684 16.8188 191.31 17.2254C192.937 17.6319 194.474 18.2164 195.922 18.9787C197.396 19.741 198.768 20.6812 200.039 21.7992C201.309 22.8919 202.427 24.1243 203.393 25.4964L183.878 49.0137ZM189.214 27.5547C188.731 27.3768 188.248 27.2625 187.766 27.2116C187.308 27.1608 186.826 27.1354 186.317 27.1354C184.894 27.1354 183.548 27.4022 182.277 27.9358C181.032 28.444 179.939 29.1809 178.999 30.1465C178.084 31.1121 177.36 32.281 176.827 33.6532C176.293 34.9999 176.026 36.5245 176.026 38.227C176.026 38.6082 176.039 39.0402 176.064 39.523C176.115 40.0058 176.179 40.5013 176.255 41.0095C176.356 41.4923 176.471 41.9624 176.598 42.4197C176.725 42.8771 176.89 43.2837 177.093 43.6394L189.214 27.5547ZM231.463 59C228.947 59 226.584 58.5299 224.373 57.5897C222.163 56.6241 220.219 55.3155 218.542 53.6638C216.89 51.9867 215.581 50.0429 214.616 47.8321C213.676 45.6214 213.206 43.2583 213.206 40.7427V28.6219H208.136V18.2545H213.206V1.94105H223.573V18.2545H239.353V28.6219H223.573V40.7427C223.573 41.8353 223.776 42.8644 224.183 43.83C224.589 44.7702 225.148 45.596 225.86 46.3075C226.571 47.019 227.41 47.5908 228.376 48.0227C229.341 48.4293 230.37 48.6326 231.463 48.6326H239.353V59H231.463ZM288.424 38.227C288.424 41.4287 287.878 44.3509 286.785 46.9936C285.693 49.6363 284.206 51.9105 282.326 53.8163C280.445 55.6967 278.235 57.1577 275.694 58.1996C273.178 59.2414 270.472 59.7623 267.575 59.7623C264.704 59.7623 261.997 59.2287 259.456 58.1615C256.941 57.0942 254.73 55.6077 252.824 53.7019C250.944 51.7962 249.457 49.5346 248.365 46.9174C247.272 44.2747 246.726 41.3779 246.726 38.227V1.94105H257.17V20.9988C257.729 20.2873 258.402 19.6521 259.19 19.093C260.003 18.534 260.867 18.0766 261.781 17.7209C262.722 17.3651 263.687 17.0983 264.678 16.9205C265.669 16.7172 266.635 16.6155 267.575 16.6155C270.472 16.6155 273.178 17.1619 275.694 18.2545C278.235 19.3217 280.445 20.8209 282.326 22.7521C284.206 24.6833 285.693 26.9702 286.785 29.6129C287.878 32.2302 288.424 35.1016 288.424 38.227ZM277.942 38.227C277.942 36.6516 277.663 35.1905 277.104 33.8437C276.57 32.4716 275.833 31.29 274.893 30.299C273.953 29.308 272.848 28.533 271.577 27.974C270.332 27.4149 268.998 27.1354 267.575 27.1354C266.152 27.1354 264.805 27.453 263.535 28.0883C262.29 28.6982 261.197 29.524 260.257 30.5658C259.317 31.5822 258.58 32.7638 258.046 34.1106C257.513 35.4319 257.246 36.8041 257.246 38.227C257.246 39.8025 257.513 41.2636 258.046 42.6103C258.58 43.9571 259.317 45.1259 260.257 46.117C261.197 47.108 262.29 47.8957 263.535 48.4801C264.805 49.0391 266.152 49.3187 267.575 49.3187C268.998 49.3187 270.332 49.0391 271.577 48.4801C272.848 47.8957 273.953 47.108 274.893 46.117C275.833 45.1259 276.57 43.9571 277.104 42.6103C277.663 41.2636 277.942 39.8025 277.942 38.227ZM308.833 7.08665C308.833 8.05224 308.642 8.95431 308.261 9.79285C307.905 10.6314 307.41 11.3683 306.775 12.0036C306.139 12.6134 305.39 13.1089 304.526 13.4901C303.687 13.8458 302.785 14.0237 301.82 14.0237C300.854 14.0237 299.939 13.8458 299.075 13.4901C298.237 13.1089 297.5 12.6134 296.865 12.0036C296.255 11.3683 295.759 10.6314 295.378 9.79285C295.022 8.95431 294.844 8.05224 294.844 7.08665C294.844 6.14646 295.022 5.2571 295.378 4.41856C295.759 3.55461 296.255 2.81771 296.865 2.20786C297.5 1.5726 298.237 1.0771 299.075 0.721353C299.939 0.340197 300.854 0.14962 301.82 0.14962C302.785 0.14962 303.687 0.340197 304.526 0.721353C305.39 1.0771 306.139 1.5726 306.775 2.20786C307.41 2.81771 307.905 3.55461 308.261 4.41856C308.642 5.2571 308.833 6.14646 308.833 7.08665ZM307.041 59H296.56V18.1783H307.041V59ZM337.817 59C335.302 59 332.939 58.5299 330.728 57.5897C328.517 56.6241 326.573 55.3155 324.896 53.6638C323.245 51.9867 321.936 50.0429 320.97 47.8321C320.03 45.6214 319.56 43.2583 319.56 40.7427V28.6219H314.491V18.2545H319.56V1.94105H329.927V18.2545H345.707V28.6219H329.927V40.7427C329.927 41.8353 330.131 42.8644 330.537 43.83C330.944 44.7702 331.503 45.596 332.214 46.3075C332.926 47.019 333.764 47.5908 334.73 48.0227C335.696 48.4293 336.725 48.6326 337.817 48.6326H345.707V59H337.817ZM366.726 55.1122C366.726 56.027 366.561 56.8909 366.23 57.7041C365.9 58.4918 365.443 59.1779 364.858 59.7623C364.274 60.3467 363.588 60.8041 362.8 61.1345C362.012 61.4902 361.161 61.6681 360.246 61.6681C359.357 61.6681 358.505 61.4902 357.692 61.1345C356.905 60.8041 356.206 60.3467 355.596 59.7623C355.012 59.1779 354.541 58.4918 354.186 57.7041C353.855 56.8909 353.69 56.027 353.69 55.1122C353.69 54.2229 353.855 53.3843 354.186 52.5966C354.541 51.8089 355.012 51.1228 355.596 50.5384C356.206 49.9539 356.905 49.4965 357.692 49.1662C358.505 48.8104 359.357 48.6326 360.246 48.6326C361.161 48.6326 362.012 48.8104 362.8 49.1662C363.588 49.4965 364.274 49.9539 364.858 50.5384C365.443 51.1228 365.9 51.8089 366.23 52.5966C366.561 53.3843 366.726 54.2229 366.726 55.1122Z" fill="#483BDF"/>
<path d="M116.1 58.505H107.697V28.4191C107.697 27.8315 107.58 27.2831 107.345 26.7738C107.129 26.2646 106.826 25.8238 106.434 25.4517C106.062 25.0599 105.621 24.7563 105.112 24.5409C104.603 24.3254 104.054 24.2177 103.466 24.2177C102.879 24.2177 102.33 24.3254 101.821 24.5409C101.312 24.7563 100.861 25.0599 100.47 25.4517C100.097 25.8238 99.8037 26.2646 99.5882 26.7738C99.3727 27.2831 99.265 27.8315 99.265 28.4191V58.505H90.8328V28.4191C90.8328 27.8315 90.725 27.2831 90.5096 26.7738C90.2941 26.2646 89.9905 25.8238 89.5988 25.4517C89.2266 25.0599 88.7859 24.7563 88.2766 24.5409C87.7674 24.3254 87.2189 24.2177 86.6313 24.2177C86.0437 24.2177 85.4953 24.3254 84.986 24.5409C84.4767 24.7563 84.0262 25.0599 83.6345 25.4517C83.2623 25.8238 82.9685 26.2646 82.7531 26.7738C82.5376 27.2831 82.4299 27.8315 82.4299 28.4191V58.505H73.9976V28.4191C73.9976 26.6759 74.3208 25.0404 74.9672 23.5126C75.6331 21.9652 76.5341 20.6235 77.6702 19.4874C78.8258 18.3318 80.1676 17.4308 81.6953 16.7844C83.2427 16.1184 84.8881 15.7854 86.6313 15.7854C88.1983 15.7854 89.7065 16.0694 91.1559 16.6375C92.6054 17.1859 93.9079 17.989 95.0636 19.0467C96.2192 17.989 97.512 17.1859 98.9418 16.6375C100.391 16.0694 101.899 15.7854 103.466 15.7854C105.21 15.7854 106.845 16.1184 108.373 16.7844C109.92 17.4308 111.262 18.3318 112.398 19.4874C113.554 20.6235 114.455 21.9652 115.101 23.5126C115.767 25.0404 116.1 26.6759 116.1 28.4191V58.505Z" fill="#483BDF"/>
<path d="M116.1 58.505V59.3181H116.913V58.505H116.1ZM107.697 58.505H106.884V59.3181H107.697V58.505ZM107.345 26.7738L106.596 27.0907L106.601 27.1027L106.606 27.1146L107.345 26.7738ZM106.434 25.4517L105.844 26.0117L105.859 26.0269L105.874 26.0412L106.434 25.4517ZM100.47 25.4517L101.045 26.0267L100.47 25.4517ZM99.5882 26.7738L100.337 27.0907L99.5882 26.7738ZM99.265 58.505V59.3181H100.078V58.505H99.265ZM90.8328 58.505H90.0196V59.3181H90.8328V58.505ZM90.5096 26.7738L89.7607 27.0907L90.5096 26.7738ZM89.5988 25.4517L89.0092 26.0117L89.0236 26.0269L89.0387 26.0412L89.5988 25.4517ZM84.986 24.5409L84.6692 23.792L84.986 24.5409ZM82.7531 26.7738L83.5019 27.0907L82.7531 26.7738ZM82.4299 58.505V59.3181H83.243V58.505H82.4299ZM73.9976 58.505H73.1845V59.3181H73.9976V58.505ZM74.9672 23.5126L74.2203 23.1911L74.2183 23.1957L74.9672 23.5126ZM81.6953 16.7844L82.0122 17.5333L82.0168 17.5313L81.6953 16.7844ZM91.1559 16.6375L90.8592 17.3946L90.8682 17.398L91.1559 16.6375ZM95.0636 19.0467L94.5146 19.6465L95.0636 20.149L95.6126 19.6465L95.0636 19.0467ZM98.9418 16.6375L99.233 17.3967L99.2385 17.3945L98.9418 16.6375ZM108.373 16.7844L108.048 17.5299L108.06 17.5347L108.373 16.7844ZM112.398 19.4874L111.818 20.0575L111.828 20.0673L112.398 19.4874ZM115.101 23.5126L114.351 23.826L114.356 23.8375L115.101 23.5126ZM116.1 57.6919H107.697V59.3181H116.1V57.6919ZM108.51 58.505V28.4191H106.884V58.505H108.51ZM108.51 28.4191C108.51 27.7196 108.37 27.0543 108.083 26.4331L106.606 27.1146C106.79 27.5119 106.884 27.9435 106.884 28.4191H108.51ZM108.094 26.457C107.836 25.8473 107.469 25.3131 106.994 24.8622L105.874 26.0412C106.183 26.3346 106.423 26.6818 106.596 27.0907L108.094 26.457ZM107.023 24.8916C106.572 24.417 106.038 24.05 105.429 23.792L104.795 25.2898C105.204 25.4627 105.551 25.7029 105.844 26.0117L107.023 24.8916ZM105.429 23.792C104.813 23.5315 104.156 23.4046 103.466 23.4046V25.0308C103.952 25.0308 104.392 25.1193 104.795 25.2898L105.429 23.792ZM103.466 23.4046C102.777 23.4046 102.12 23.5315 101.504 23.792L102.138 25.2898C102.541 25.1193 102.981 25.0308 103.466 25.0308V23.4046ZM101.504 23.792C100.898 24.0484 100.36 24.4111 99.8947 24.8767L101.045 26.0267C101.362 25.7088 101.725 25.4643 102.138 25.2898L101.504 23.792ZM99.8947 24.8767C99.4447 25.3266 99.0935 25.8562 98.8393 26.457L100.337 27.0907C100.514 26.6729 100.75 26.3211 101.045 26.0267L99.8947 24.8767ZM98.8393 26.457C98.5789 27.0727 98.4519 27.7296 98.4519 28.4191H100.078C100.078 27.9335 100.167 27.4935 100.337 27.0907L98.8393 26.457ZM98.4519 28.4191V58.505H100.078V28.4191H98.4519ZM99.265 57.6919H90.8328V59.3181H99.265V57.6919ZM91.6459 58.505V28.4191H90.0196V58.505H91.6459ZM91.6459 28.4191C91.6459 27.7296 91.5189 27.0727 91.2584 26.457L89.7607 27.0907C89.9311 27.4935 90.0196 27.9335 90.0196 28.4191H91.6459ZM91.2584 26.457C91.0005 25.8473 90.6335 25.3131 90.1588 24.8622L89.0387 26.0412C89.3475 26.3346 89.5877 26.6818 89.7607 27.0907L91.2584 26.457ZM90.1883 24.8916C89.7373 24.417 89.2032 24.05 88.5935 23.792L87.9598 25.2898C88.3686 25.4627 88.7159 25.7029 89.0092 26.0117L90.1883 24.8916ZM88.5935 23.792C87.9778 23.5315 87.3209 23.4046 86.6313 23.4046V25.0308C87.117 25.0308 87.557 25.1193 87.9598 25.2898L88.5935 23.792ZM86.6313 23.4046C85.9418 23.4046 85.2849 23.5315 84.6692 23.792L85.3028 25.2898C85.7057 25.1193 86.1456 25.0308 86.6313 25.0308V23.4046ZM84.6692 23.792C84.0633 24.0484 83.5252 24.4111 83.0595 24.8767L84.2094 26.0267C84.5273 25.7088 84.8902 25.4643 85.3028 25.2898L84.6692 23.792ZM83.0595 24.8767C82.6096 25.3266 82.2583 25.8562 82.0042 26.457L83.5019 27.0907C83.6787 26.6729 83.9151 26.3211 84.2094 26.0267L83.0595 24.8767ZM82.0042 26.457C81.7437 27.0727 81.6167 27.7296 81.6167 28.4191H83.243C83.243 27.9335 83.3315 27.4935 83.5019 27.0907L82.0042 26.457ZM81.6167 28.4191V58.505H83.243V28.4191H81.6167ZM82.4299 57.6919H73.9976V59.3181H82.4299V57.6919ZM74.8107 58.505V28.4191H73.1845V58.505H74.8107ZM74.8107 28.4191C74.8107 26.7791 75.1142 25.2519 75.716 23.8294L74.2183 23.1957C73.5274 24.8288 73.1845 26.5727 73.1845 28.4191H74.8107ZM75.7141 23.834C76.3413 22.3766 77.1855 21.1221 78.2452 20.0624L77.0952 18.9124C75.8828 20.1248 74.925 21.5538 74.2203 23.1911L75.7141 23.834ZM78.2452 20.0624C79.3256 18.9819 80.5793 18.1394 82.0122 17.5332L81.3785 16.0355C79.7558 16.7221 78.326 17.6816 77.0952 18.9124L78.2452 20.0624ZM82.0168 17.5313C83.4591 16.9105 84.9947 16.5986 86.6313 16.5986V14.9723C84.7815 14.9723 83.0264 15.3263 81.3739 16.0375L82.0168 17.5313ZM86.6313 16.5986C88.0974 16.5986 89.505 16.8638 90.8593 17.3945L91.4526 15.8804C89.908 15.2751 88.2991 14.9723 86.6313 14.9723V16.5986ZM90.8682 17.398C92.2201 17.9095 93.4342 18.6577 94.5146 19.6465L95.6126 18.4469C94.3817 17.3203 92.9907 16.4623 91.4437 15.877L90.8682 17.398ZM95.6126 19.6465C96.6948 18.656 97.9005 17.9078 99.233 17.3967L98.6506 15.8783C97.1234 16.4641 95.7436 17.322 94.5146 18.4469L95.6126 19.6465ZM99.2385 17.3945C100.593 16.8638 102 16.5986 103.466 16.5986V14.9723C101.799 14.9723 100.19 15.2751 98.6451 15.8804L99.2385 17.3945ZM103.466 16.5986C105.103 16.5986 106.628 16.9105 108.048 17.5298L108.698 16.039C107.063 15.3263 105.316 14.9723 103.466 14.9723V16.5986ZM108.06 17.5347C109.511 18.1408 110.761 18.9817 111.818 20.0574L112.978 18.9174C111.763 17.6818 110.33 16.7207 108.686 16.0341L108.06 17.5347ZM111.828 20.0673C112.904 21.1247 113.745 22.375 114.351 23.826L115.852 23.1991C115.165 21.5554 114.204 20.1222 112.968 18.9075L111.828 20.0673ZM114.356 23.8375C114.975 25.2581 115.287 26.7825 115.287 28.4191H116.913C116.913 26.5693 116.559 24.8226 115.847 23.1876L114.356 23.8375ZM115.287 28.4191V58.505H116.913V28.4191H115.287Z" fill="#483BDF"/>
<rect x="5.23682" y="8.98242" width="46.0842" height="33.1667" fill="white"/>
<path d="M16.9545 29.7158C18.5048 29.7158 19.7615 27.773 19.7615 25.3764C19.7615 22.9799 18.5048 21.0371 16.9545 21.0371C15.4042 21.0371 14.1475 22.9799 14.1475 25.3764C14.1475 27.773 15.4042 29.7158 16.9545 29.7158Z" fill="#483BDF"/>
<path d="M34.0773 29.7158C35.6276 29.7158 36.8843 27.773 36.8843 25.3764C36.8843 22.9799 35.6276 21.0371 34.0773 21.0371C32.527 21.0371 31.2703 22.9799 31.2703 25.3764C31.2703 27.773 32.527 29.7158 34.0773 29.7158Z" fill="#483BDF"/>
<path d="M22.3719 61.2109C25.9368 60.539 44.9403 47.129 47.4105 45.3933C37.3053 45.3933 27.2 45.3933 17.0947 45.3933C18.386 46.5691 19.0035 47.717 19.3403 48.4728C20.407 50.9365 20.0982 53.4281 19.621 56.8716C19.4807 57.9354 19.3123 58.8033 19.2 59.3912C19.2 59.6151 19.1719 60.259 19.621 60.791C20.3228 61.6028 21.8105 61.2949 22.3719 61.2109Z" fill="#483BDF"/>
<path d="M51.4246 43.1536L39.0176 31.3954" stroke="#57E2C9" stroke-width="2.30553" stroke-miterlimit="10"/>
<path d="M34.0773 33.8591C38.8676 33.8591 42.7509 29.986 42.7509 25.2084C42.7509 20.4308 38.8676 16.5577 34.0773 16.5577C29.2869 16.5577 25.4036 20.4308 25.4036 25.2084C25.4036 29.986 29.2869 33.8591 34.0773 33.8591Z" stroke="#57E2C9" stroke-width="2.46511" stroke-miterlimit="10"/>
<path d="M54.5965 6.84326C53.5579 5.80742 52.1263 5.61145 51.5649 5.55546C41.1509 4.46362 27.8737 4.46362 27.8737 4.46362C27.8737 4.46362 15.2421 4.46362 4.29474 5.55546C3.70526 5.61145 2.30175 5.77942 1.26316 6.84326C0.477193 7.65513 0 8.74697 0 9.92278V40.802C0 41.138 0.0280702 41.4739 0.112281 41.8099C0.168421 42.0339 0.421053 43.0417 1.26316 43.8816C2.21754 44.8334 3.50877 45.0574 4.29474 45.1694C11.1158 45.9532 27.8737 45.8973 27.8737 45.8973C27.8737 45.8973 44.8561 45.9253 51.5649 45.1694C52.2667 45.0854 53.6702 44.8614 54.6807 43.7976C55.7193 42.7057 55.8316 41.278 55.8597 40.802C55.8597 40.3821 55.8597 39.9622 55.8597 39.5422C55.8597 29.6598 55.8597 19.7773 55.8597 9.89479C55.8597 8.74697 55.3825 7.65513 54.5965 6.84326ZM49.8246 35.8748C49.8246 36.1827 49.8246 36.4907 49.8246 36.7987C49.8246 37.1626 49.7404 38.1984 48.8983 39.0103C48.1123 39.7942 46.9895 39.9622 46.4561 40.0182C41.179 40.5781 27.8737 40.5501 27.8737 40.5501C27.8737 40.5501 14.7368 40.6061 9.40351 40.0182C8.78597 39.9622 7.77544 39.7662 7.01754 39.0663C6.37193 38.4224 6.14737 37.6945 6.1193 37.5265C6.06316 37.2746 6.03509 37.0506 6.03509 36.7987V13.8422C6.03509 12.9463 6.42807 12.1344 7.01754 11.5465C7.83158 10.7627 8.92632 10.6507 9.40351 10.5947C17.993 9.78281 27.8737 9.78281 27.8737 9.78281C27.8737 9.78281 38.2877 9.78281 46.4561 10.5947C46.9053 10.6507 48.0281 10.7627 48.8421 11.5465C49.4597 12.1344 49.8246 12.9463 49.8246 13.8422C49.8246 21.2051 49.8246 28.5399 49.8246 35.8748Z" fill="#483BDF"/>
<path d="M17.0948 2H14.0071V6.75927H17.0948V2Z" fill="#483BDF"/>
<path d="M42.0772 2H38.9895V6.75927H42.0772V2Z" fill="#483BDF"/>
</svg>
